<?xml version="1.0" encoding="UTF-8"?>
<svg width="14px" height="15px" viewBox="0 0 14 15" version="1.1" xmlns="http://www.w3.org/2000/svg"
  xmlns:xlink="http://www.w3.org/1999/xlink">
  <g id="Page-3" stroke="none" stroke-width="1" fill="none" fill-rule="evenodd">
    <g id="Assistente---Mvp---2" transform="translate(-679.000000, -363.000000)" fill="#7B808C" fill-rule="nonzero">
      <g id="Lupe" transform="translate(676.000000, 362.000000)">
        <path
          d="M12.6036634,10.7553758 L16.9210721,15.1073238 C17.060545,15.2479125 17.060545,15.4758519 16.9210721,15.6164407 C16.7815991,15.7570294 16.5554688,15.7570294 16.4159958,15.6164407 L12.0985871,11.2644927 C11.156267,12.0960496 9.92223266,12.6 8.57142857,12.6 C5.61276027,12.6 3.21428571,10.1823376 3.21428571,7.2 C3.21428571,4.21766235 5.61276027,1.8 8.57142857,1.8 C11.5300969,1.8 13.9285714,4.21766235 13.9285714,7.2 C13.9285714,8.56161052 13.4286206,9.80551712 12.6036634,10.7553758 Z M8.57142857,11.88 C11.1356078,11.88 13.2142857,9.78469263 13.2142857,7.2 C13.2142857,4.61530737 11.1356078,2.52 8.57142857,2.52 C6.00724938,2.52 3.92857143,4.61530737 3.92857143,7.2 C3.92857143,9.78469263 6.00724938,11.88 8.57142857,11.88 Z"
          id="Combined-Shape"></path>
      </g>
    </g>
  </g>
</svg>